<?xml version="1.0" encoding="UTF-8"?>
<svg width="540px" height="640px" viewBox="0 0 540 640" version="1.1" xmlns="http://www.w3.org/2000/svg" xmlns:xlink="http://www.w3.org/1999/xlink">
    <!-- Generator: Sketch 43.2 (39069) - http://www.bohemiancoding.com/sketch -->
    <title>KeepOCaml</title>
    <desc>Created with Sketch.</desc>
    <defs>
        <rect id="path-1" x="90" y="428" width="91" height="91"></rect>
        <filter x="-0.5%" y="-0.5%" width="101.1%" height="102.2%" filterUnits="objectBoundingBox" id="filter-2">
            <feOffset dx="0" dy="1" in="SourceAlpha" result="shadowOffsetOuter1"></feOffset>
            <feComposite in="shadowOffsetOuter1" in2="SourceAlpha" operator="out" result="shadowOffsetOuter1"></feComposite>
            <feColorMatrix values="0 0 0 0 0   0 0 0 0 0   0 0 0 0 0  0 0 0 0.02 0" type="matrix" in="shadowOffsetOuter1"></feColorMatrix>
        </filter>
        <path d="M144.49376,511 L134.23484,511 L129.17972,501.38536 L122.43956,501.38536 L122.43956,511 L113.37008,511 L113.37008,476.25844 L128.98148,476.25844 C138.19964,476.25844 143.453,480.71884 143.453,488.4502 C143.453,493.70356 141.27236,497.56924 137.258,499.65076 L144.49376,511 Z M122.43956,483.4942 L122.43956,494.1496 L129.03104,494.1496 C132.69848,494.1496 134.82956,492.26632 134.82956,488.74756 C134.82956,485.32792 132.69848,483.4942 129.03104,483.4942 L122.43956,483.4942 Z M149.25152,476.25844 L149.25152,511 L177.1538,511 L177.1538,503.76424 L158.321,503.76424 L158.321,497.22232 L174.87404,497.17276 L174.87404,489.98656 L158.321,489.98656 L158.321,483.4942 L176.6582,483.4942 L176.6582,476.25844 L149.25152,476.25844 Z" id="path-3"></path>
        <filter x="-0.8%" y="-1.4%" width="101.6%" height="102.9%" filterUnits="objectBoundingBox" id="filter-4">
            <feOffset dx="0" dy="1" in="SourceAlpha" result="shadowOffsetInner1"></feOffset>
            <feComposite in="shadowOffsetInner1" in2="SourceAlpha" operator="arithmetic" k2="-1" k3="1" result="shadowInnerInner1"></feComposite>
            <feColorMatrix values="0 0 0 0 0   0 0 0 0 0   0 0 0 0 0  0 0 0 0.02 0" type="matrix" in="shadowInnerInner1"></feColorMatrix>
        </filter>
    </defs>
    <g id="Page-1" stroke="none" stroke-width="1" fill="none" fill-rule="evenodd">
        <g id="KeepOCaml">
            <path d="M267.87,436.695 C267.87,438.195007 267.562503,439.582494 266.9475,440.8575 C266.332497,442.132506 265.515005,443.227495 264.495,444.1425 C263.474995,445.057505 262.297507,445.769997 260.9625,446.28 C259.627493,446.790003 258.225007,447.045 256.755,447.045 L242.22,447 L242.22,411 L255.18,411 C256.740008,411 258.187493,411.232498 259.5225,411.6975 C260.857507,412.162502 262.019995,412.837496 263.01,413.7225 C264.000005,414.607504 264.772497,415.687494 265.3275,416.9625 C265.882503,418.237506 266.16,419.669992 266.16,421.26 C266.16,422.610007 265.860003,423.914994 265.26,425.175 C264.659997,426.435006 263.865005,427.499996 262.875,428.37 C263.655004,428.760002 264.352497,429.254997 264.9675,429.855 C265.582503,430.455003 266.107498,431.122496 266.5425,431.8575 C266.977502,432.592504 267.307499,433.372496 267.5325,434.1975 C267.757501,435.022504 267.87,435.854996 267.87,436.695 Z M259.275,421.395 C259.275,420.524996 259.110002,419.775003 258.78,419.145 C258.449998,418.514997 258.007503,417.990002 257.4525,417.57 C256.897497,417.149998 256.260004,416.835001 255.54,416.625 C254.819996,416.414999 254.070004,416.31 253.29,416.31 L249.195,416.31 L249.195,426.21 C249.945004,426.24 250.619997,426.255 251.22,426.255 L253.29,426.255 C254.070004,426.255 254.819996,426.165001 255.54,425.985 C256.260004,425.804999 256.897497,425.520002 257.4525,425.13 C258.007503,424.739998 258.449998,424.237503 258.78,423.6225 C259.110002,423.007497 259.275,422.265004 259.275,421.395 Z M260.625,436.29 C260.625,435.539996 260.482501,434.850003 260.1975,434.22 C259.912499,433.589997 259.522502,433.057502 259.0275,432.6225 C258.532498,432.187498 257.962503,431.850001 257.3175,431.61 C256.672497,431.369999 255.975004,431.25 255.225,431.25 C254.204995,431.22 253.200005,431.2125 252.21,431.2275 C251.219995,431.2425 250.215005,431.25 249.195,431.25 L249.195,441.195 L254.415,441.195 C255.165004,441.195 255.914996,441.105001 256.665,440.925 C257.415004,440.744999 258.082497,440.452502 258.6675,440.0475 C259.252503,439.642498 259.724998,439.132503 260.085,438.5175 C260.445002,437.902497 260.625,437.160004 260.625,436.29 Z M296.58,447 L272.82,447 L272.82,411.045 L296.58,411.045 L296.58,416.805 L279.66,416.805 L279.66,425.4 L296.355,425.4 L296.355,431.025 L279.66,431.025 L279.66,440.925 L296.58,440.925 L296.58,447 Z" id="BE" fill="#333333"></path>
            <path d="M258.5125,391 L254.2625,391 L252.4125,387 L242.7125,387 L240.8375,391 L236.5875,391 L246.0375,371 L249.0625,371 L258.5125,391 Z M250.8875,383.775 L247.5625,376.575 L244.1875,383.775 L250.8875,383.775 Z M277.1375,391 L273.3375,391 L264.3125,376.975 L264.3125,391 L260.5125,391 L260.5125,371 L264.8625,371 L273.3375,384.05 L273.3375,371 L277.1375,371 L277.1375,391 Z M298.6625,381 C298.6625,382.38334 298.429169,383.679161 297.9625,384.8875 C297.495831,386.095839 296.845838,387.154162 296.0125,388.0625 C295.179163,388.970838 294.183339,389.687497 293.025,390.2125 C291.866661,390.737503 290.604174,391 289.2375,391 L280.8875,391 L280.8875,371 L289.2375,371 C290.604174,371 291.866661,371.266664 293.025,371.8 C294.183339,372.333336 295.179163,373.049996 296.0125,373.95 C296.845838,374.850005 297.495831,375.908327 297.9625,377.125 C298.429169,378.341673 298.6625,379.633327 298.6625,381 Z M294.7375,380.9 C294.754167,379.966662 294.612502,379.083337 294.3125,378.25 C294.012498,377.416663 293.57917,376.687503 293.0125,376.0625 C292.44583,375.437497 291.750004,374.945835 290.925,374.5875 C290.099996,374.229165 289.170839,374.05 288.1375,374.05 L284.7625,374.05 L284.7625,387.7 L288.1375,387.7 C289.154172,387.7 290.066663,387.529168 290.875,387.1875 C291.683337,386.845832 292.370831,386.370836 292.9375,385.7625 C293.504169,385.154164 293.941665,384.437504 294.25,383.6125 C294.558335,382.787496 294.720833,381.883338 294.7375,380.9 Z" id="AND" fill="#333333"></path>
            <path d="M191.092,319.4 C191.092,323.069352 190.37734,326.525317 188.948,329.768 C187.51866,333.010683 185.566679,335.826655 183.092,338.216 C180.617321,340.605345 177.73735,342.493326 174.452,343.88 C171.16665,345.266674 167.668019,345.96 163.956,345.96 C160.243981,345.96 156.734683,345.266674 153.428,343.88 C150.121317,342.493326 147.230679,340.605345 144.756,338.216 C142.281321,335.826655 140.32934,333.021349 138.9,329.8 C137.47066,326.578651 136.756,323.112019 136.756,319.4 C136.756,315.687981 137.47066,312.210683 138.9,308.968 C140.32934,305.725317 142.281321,302.909345 144.756,300.52 C147.230679,298.130655 150.121317,296.25334 153.428,294.888 C156.734683,293.52266 160.243981,292.84 163.956,292.84 C167.668019,292.84 171.16665,293.52266 174.452,294.888 C177.73735,296.25334 180.617321,298.141321 183.092,300.552 C185.566679,302.962679 187.51866,305.778651 188.948,309 C190.37734,312.221349 191.092,315.687981 191.092,319.4 Z M181.108,319.4 C181.108,317.053322 180.660004,314.845344 179.764,312.776 C178.867996,310.706656 177.641341,308.893341 176.084,307.336 C174.526659,305.778659 172.702677,304.541338 170.612,303.624 C168.521323,302.706662 166.302678,302.248 163.956,302.248 C161.566655,302.248 159.326677,302.706662 157.236,303.624 C155.145323,304.541338 153.321341,305.778659 151.764,307.336 C150.206659,308.893341 148.980004,310.706656 148.084,312.776 C147.187996,314.845344 146.74,317.053322 146.74,319.4 C146.74,321.704012 147.187996,323.901323 148.084,325.992 C148.980004,328.082677 150.206659,329.906659 151.764,331.464 C153.321341,333.021341 155.145323,334.258662 157.236,335.176 C159.326677,336.093338 161.566655,336.552 163.956,336.552 C166.302678,336.552 168.521323,336.093338 170.612,335.176 C172.702677,334.258662 174.526659,333.021341 176.084,331.464 C177.641341,329.906659 178.867996,328.082677 179.764,325.992 C180.660004,323.901323 181.108,321.704012 181.108,319.4 Z M245.62,335.784 C243.059987,338.898682 239.956018,341.373324 236.308,343.208 C232.659982,345.042676 228.638689,345.96 224.244,345.96 C220.446648,345.96 216.884017,345.266674 213.556,343.88 C210.227983,342.493326 207.326679,340.605345 204.852,338.216 C202.377321,335.826655 200.42534,333.021349 198.996,329.8 C197.56666,326.578651 196.852,323.112019 196.852,319.4 C196.852,315.687981 197.56666,312.221349 198.996,309 C200.42534,305.778651 202.377321,302.962679 204.852,300.552 C207.326679,298.141321 210.227983,296.25334 213.556,294.888 C216.884017,293.52266 220.446648,292.84 224.244,292.84 C228.638689,292.84 232.659982,293.757324 236.308,295.592 C239.956018,297.426676 242.995988,299.815985 245.428,302.76 L238.58,309.8 C237.001325,307.538655 234.964012,305.714674 232.468,304.328 C229.971988,302.941326 227.230682,302.248 224.244,302.248 C221.854655,302.248 219.604011,302.706662 217.492,303.624 C215.379989,304.541338 213.534675,305.778659 211.956,307.336 C210.377325,308.893341 209.129338,310.706656 208.212,312.776 C207.294662,314.845344 206.836,317.053322 206.836,319.4 C206.836,321.704012 207.294662,323.890656 208.212,325.96 C209.129338,328.029344 210.377325,329.842659 211.956,331.4 C213.534675,332.957341 215.379989,334.194662 217.492,335.112 C219.604011,336.029338 221.854655,336.488 224.244,336.488 C227.401349,336.488 230.195988,335.77334 232.628,334.344 C235.060012,332.91466 237.086659,331.026678 238.708,328.68 L245.62,335.784 Z M302.388,345 L291.508,345 L286.772,334.76 L261.94,334.76 L257.14,345 L246.26,345 L270.452,293.8 L278.196,293.8 L302.388,345 Z M282.868,326.504 L274.356,308.072 L265.716,326.504 L282.868,326.504 Z M358.58,345 L348.852,345 L348.852,310.824 L332.724,338.024 L317.236,310.568 L317.236,345 L307.508,345 L307.508,293.8 L318.708,293.8 L332.916,319.208 L347.764,293.8 L358.58,293.8 L358.58,345 Z M402.804,345 L368.18,345 L368.18,293.864 L378.292,293.864 L378.292,335.4 L402.804,335.4 L402.804,345 Z" id="OCAML" fill="#333333"></path>
            <path d="M224.507,248 L209.559,248 L185.879,221.804 L185.879,248 L174.409,248 L174.409,188.8 L185.879,188.8 L185.879,215.218 L210.077,188.8 L223.693,188.8 L196.979,217.882 L224.507,248 Z M268.759,248 L229.687,248 L229.687,188.874 L268.759,188.874 L268.759,198.346 L240.935,198.346 L240.935,212.48 L268.389,212.48 L268.389,221.73 L240.935,221.73 L240.935,238.01 L268.759,238.01 L268.759,248 Z M316.711,248 L277.639,248 L277.639,188.874 L316.711,188.874 L316.711,198.346 L288.887,198.346 L288.887,212.48 L316.341,212.48 L316.341,221.73 L288.887,221.73 L288.887,238.01 L316.711,238.01 L316.711,248 Z M367.031,208.706 C367.031,211.518014 366.500672,214.144988 365.44,216.587 C364.379328,219.029012 362.936342,221.150324 361.111,222.951 C359.285658,224.751676 357.139679,226.157662 354.673,227.169 C352.206321,228.180338 349.59168,228.686 346.829,228.686 L337.061,228.686 L337.061,248 L325.591,248 L325.591,188.874 L346.829,188.874 C349.59168,188.874 352.206321,189.379662 354.673,190.391 C357.139679,191.402338 359.285658,192.795991 361.111,194.572 C362.936342,196.348009 364.379328,198.444655 365.44,200.862 C366.500672,203.279345 367.031,205.893986 367.031,208.706 Z M355.635,208.558 C355.635,207.028659 355.351336,205.598007 354.784,204.266 C354.216664,202.933993 353.439672,201.774672 352.453,200.788 C351.466328,199.801328 350.307007,199.012003 348.975,198.42 C347.642993,197.827997 346.212341,197.532 344.683,197.532 L337.061,197.532 L337.061,219.88 L344.683,219.88 C346.212341,219.88 347.642993,219.57167 348.975,218.955 C350.307007,218.33833 351.466328,217.512005 352.453,216.476 C353.439672,215.439995 354.216664,214.243673 354.784,212.887 C355.351336,211.530327 355.635,210.087341 355.635,208.558 Z" id="KEEP" fill="#333333"></path>
            <path d="M230.881918,70.8079467 L231.070577,69.0219467 C231.070577,68.4579467 231.164907,67.7059467 230.504598,67.4239467 C229.655629,67.1419467 228.71233,67.9879467 228.42934,68.9279467 C228.146351,69.2112 228.33501,68.9279467 228.146351,69.2112 C227.297381,69.0232 226.920062,68.3652 225.505113,69.0232 C224.656144,69.3052 224.184495,69.8692 223.146866,70.0572 C221.920577,70.2452 221.354598,70.6212 220.128309,70.5272 C218.902021,70.3392 218.619031,69.9632 217.015423,70.0572 C210.789649,70.9032 212.959237,69.8692 209.374701,73.6292 L208.903052,74.1932 C208.808722,74.4752 208.431402,75.2272 208.431402,75.5092 C209.186041,76.2624533 208.903052,75.9792 209.752021,76.5432 C209.280371,77.0132 208.242742,77.1072 208.148412,77.8592 C209.374701,79.8332 212.487588,76.8252 214.751505,77.6724533 C215.789134,78.1424533 216.260784,78.5184533 217.392742,78.9884533 C219.65666,79.4584533 215.883464,78.7064533 217.392742,78.9884533 C218.147381,79.2704533 218.241711,85.6624533 218.619031,86.5084533 C219.939649,88.4824533 221.826247,94.9684533 222.203567,95.3444533 C224.278825,96.1904533 226.165423,105.966453 226.448412,105.496453 C227.957691,103.899707 232.485526,109.069707 235.126763,112.546453 C237.67367,116.119707 240.786557,115.273707 244.465423,117.623707 C246.352021,118.845707 249.559237,107.470453 251.823155,107.095707 C254.464392,106.625707 255.407691,106.249707 257.482948,108.317707 C257.954598,108.787707 259.086557,109.821707 259.558206,110.10496 C260.312845,110.667707 261.633464,110.667707 262.199443,111.32696 C262.388103,111.60896 262.671093,113.58296 262.765423,113.95896 C263.237072,116.77896 264.086041,118.84696 265.40666,121.386213 C266.632948,123.45296 268.708206,129.09296 268.991196,131.34896 C269.274186,133.41696 269.745835,134.73296 270.500474,136.70696 C270.972124,138.02296 271.065196,137.55296 270.783464,139.24496 L270.311814,145.541707 L270.311814,148.549707 C269.557175,150.429707 265.50099,149.113707 266.161299,151.086453 C266.255629,151.556453 268.802536,152.590453 269.274186,152.779707 C270.030082,152.873707 270.123155,152.591707 270.783464,152.873707 C270.500474,153.436453 266.632948,155.223707 268.802536,156.256453 C270.783464,157.103707 272.198412,157.009707 274.17934,156.444453 C276.443258,155.692453 277.196639,155.222453 276.537588,152.872453 C276.25334,151.274453 276.25334,148.2652 276.25334,146.4792 C276.065938,142.3432 275.216969,138.302453 275.688619,134.1652 C275.876021,131.4392 275.594289,131.0632 274.461072,128.6192 C273.895093,126.9272 273.234784,124.8592 273.140454,123.262453 C272.951794,121.194453 272.574474,119.408453 272.574474,117.3392 C272.387072,115.3652 271.348186,112.452453 273.802021,112.452453 C275.028309,112.452453 275.876021,112.6392 276.914907,112.358453 C278.424186,112.170453 278.518515,112.170453 280.027794,112.358453 C282.008722,112.640453 284.179567,112.358453 286.253567,112.170453 C289.649443,111.700453 294.743258,112.358453 297.573155,110.196453 C298.800701,109.444453 300.403052,108.129707 301.630598,107.564453 C302.385237,107.282453 303.138619,107.000453 303.894515,106.530453 C304.649155,106.248453 305.403794,105.308453 306.158433,105.778453 C306.724412,106.624453 306.441423,107.564453 306.441423,108.410453 C306.441423,109.163707 306.630082,110.196453 306.72567,110.948453 C307.291649,115.084453 308.79967,114.332453 309.083918,117.058453 C309.083918,118.280453 310.310206,121.9452 310.781856,123.920453 C311.347835,127.963707 311.819485,130.124453 311.347835,134.166453 C310.876186,139.336453 311.347835,139.054453 309.555567,143.943707 C308.989588,145.259707 308.328021,146.480453 307.763299,147.796453 C305.969773,151.369707 301.160206,149.300453 300.499897,152.120453 C300.028247,154.188453 302.858144,153.718453 304.273093,153.906453 C305.782371,154.094453 307.385979,153.436453 308.423608,152.403707 C308.989588,151.933707 309.744227,149.300453 310.215876,148.360453 C311.253505,146.010453 312.291134,143.566453 313.234433,141.216453 C313.328763,140.653707 313.328763,140.464453 313.800412,140.370453 C313.800412,143.190453 313.706082,143.378453 312.762784,146.010453 C312.574124,146.480453 312.574124,146.856453 312.479794,147.326453 L311.442165,149.676453 C311.253505,150.429707 311.442165,150.429707 310.970515,150.993707 C310.970515,151.180453 310.876186,151.463707 310.686268,151.463707 L310.403278,152.026453 C308.422351,154.094453 303.517196,156.163707 303.517196,157.196453 C303.988845,158.419707 305.875443,158.043707 306.911814,158.043707 C308.70534,158.043707 308.987072,157.760453 310.68501,157.479707 C312.384206,157.009707 312.194289,156.163707 312.384206,154.846453 C312.478536,154.376453 313.704825,152.779707 313.986557,152.214453 C315.308433,149.864453 315.214103,149.112453 315.780082,147.608453 C316.063072,147.044453 316.063072,146.574453 316.251732,145.822453 C316.816454,144.224453 317.572351,140.7452 318.515649,139.4292 C319.836268,137.4552 320.589649,135.3872 320.213588,133.0372 C319.647608,129.463947 319.930598,124.293947 319.930598,120.3472 C319.930598,117.243947 321.251216,115.1772 321.251216,113.1092 C321.251216,112.3572 321.251216,111.8872 321.345546,111.1352 C321.532948,110.3832 321.345546,109.632453 321.911526,109.538453 C321.911526,110.290453 322.098928,110.572453 322.098928,111.324453 L321.911526,113.298453 C321.911526,114.050453 321.439876,114.144453 321.439876,114.8952 L321.251216,118.7492 C321.156887,119.3132 320.968227,119.7832 320.968227,120.5352 C320.968227,121.0992 321.722866,123.0732 322.194515,123.4492 C323.515134,123.6372 323.420804,122.6972 323.420804,121.6632 L324.648351,121.5692 L324.835753,120.2532 L325.873381,119.9712 L325.685979,118.653947 C327.759979,120.251947 329.836495,118.841947 328.231629,117.807947 C326.157629,116.491947 327.194,115.175947 326.533691,112.9212 C325.777794,110.663947 323.891196,111.133947 323.515134,109.5372 C323.232144,108.313947 324.081113,105.6832 324.271031,104.1792 C324.554021,100.8892 324.554021,95.5324533 323.705052,92.4292 C323.139072,90.1732 322.667423,90.0792 321.158144,88.5752 C319.837526,87.3532 319.460206,86.5072 317.856598,85.4732 C315.310948,83.6872 312.481052,82.1832 309.651155,80.9612 C304.556082,78.6112 306.349608,78.3279467 303.425381,74.4752 C302.104763,72.7832 298.331567,70.1512 296.444969,68.6472 C295.123093,67.4252 294.369711,66.3912 292.577443,66.1092 C287.200639,65.2632 288.426928,72.5024533 284.842392,75.9792 C283.616103,77.1072 277.20167,73.2532 274.278701,69.1172 C265.033113,56.0512 262.864784,79.6452 262.110144,80.1152 C255.695711,84.1572 253.903443,89.7972 247.58334,91.1132 C246.734371,91.2072 245.602412,91.6772 245.036433,91.6772 C243.998804,91.8652 243.527155,91.1132 242.678186,90.6432 C240.319938,89.4212 240.980247,89.8912 239.376639,87.6352 C238.622,86.3192 237.395711,85.0972 237.301381,83.4992 C237.301381,81.9952 236.735402,79.7392 235.792103,78.7052 C233.900474,76.2599467 233.428825,72.3119467 230.881918,70.8079467 Z" id="OCaml" fill="#333333" fill-rule="nonzero"></path>
            <g id="Rectangle-1">
                <use fill="black" fill-opacity="1" filter="url(#filter-2)" xlink:href="#path-1"></use>
                <use fill="#DD4B39" fill-rule="evenodd" xlink:href="#path-1"></use>
                <rect stroke="#D74837" stroke-width="0.6" x="90.3" y="428.3" width="90.4" height="90.4"></rect>
            </g>
            <path d="M222.637721,511 L215.232521,511 L212.009081,504.0304 L195.1078,504.0304 L191.8408,511 L184.4356,511 L200.901281,476.151999 L206.172041,476.151999 L222.637721,511 Z M209.351921,498.41116 L203.558441,485.865879 L197.67784,498.41116 L209.351921,498.41116 Z M250.860172,501.8524 C250.860172,503.159206 250.577035,504.400654 250.010752,505.57678 C249.444469,506.752906 248.653137,507.791075 247.636732,508.69132 C246.620327,509.591564 245.415179,510.310297 244.021252,510.84754 C242.627325,511.384783 241.08822,511.6534 239.403892,511.6534 C237.893804,511.6534 236.536198,511.566281 235.331032,511.39204 C234.125865,511.217799 232.993317,510.941922 231.933351,510.5644 C230.873386,510.186878 229.856996,509.700463 228.884151,509.10514 C227.911306,508.509817 226.902176,507.791084 225.856731,506.94892 L230.648331,502.11376 C232.042258,503.275366 233.407125,504.095737 234.742971,504.5749 C236.078818,505.054062 237.530804,505.29364 239.098972,505.29364 C239.737855,505.29364 240.340429,505.199261 240.906712,505.0105 C241.472995,504.821739 241.96667,504.567641 242.387752,504.2482 C242.808834,503.928758 243.142791,503.551242 243.389632,503.11564 C243.636473,502.680038 243.759892,502.200882 243.759892,501.67816 C243.759892,501.126397 243.658253,500.632722 243.454972,500.19712 C243.251691,499.761517 242.888694,499.340442 242.365972,498.93388 C241.843249,498.527318 241.117256,498.113502 240.187972,497.69242 C239.258687,497.271337 238.068059,496.799442 236.616052,496.27672 C235.338285,495.812077 234.111357,495.282102 232.935231,494.686779 C231.759106,494.091456 230.728196,493.372724 229.842471,492.530559 C228.956747,491.688395 228.245274,490.701045 227.708031,489.568479 C227.170789,488.435914 226.902171,487.100087 226.902171,485.560959 C226.902171,484.079912 227.199828,482.715045 227.795151,481.466319 C228.390474,480.217593 229.203586,479.150383 230.234511,478.264659 C231.265437,477.378935 232.470585,476.689241 233.849991,476.195559 C235.229398,475.701876 236.717684,475.455039 238.314892,475.455039 C240.986585,475.455039 243.237163,475.803515 245.066692,476.500479 C246.896221,477.197442 248.522445,478.213832 249.945412,479.549679 L245.240932,484.297719 C244.369727,483.455555 243.396897,482.809421 242.322412,482.359299 C241.247926,481.909177 239.984699,481.684119 238.532692,481.684119 C237.864768,481.684119 237.247674,481.785758 236.681392,481.989039 C236.115109,482.19232 235.628694,482.460937 235.222132,482.794899 C234.815569,483.128861 234.488873,483.520897 234.242031,483.971019 C233.99519,484.421141 233.871771,484.893037 233.871771,485.386719 C233.871771,485.938482 233.98793,486.439417 234.220251,486.889539 C234.452573,487.339662 234.844609,487.775257 235.396372,488.196339 C235.948134,488.617421 236.681387,489.038497 237.596152,489.459579 C238.510916,489.880661 239.650725,490.338037 241.015612,490.831719 C242.75802,491.441562 244.253566,492.109476 245.502292,492.835479 C246.751018,493.561483 247.767408,494.360075 248.551492,495.23128 C249.335576,496.102484 249.91637,497.082574 250.293892,498.17158 C250.671414,499.260585 250.860172,500.487513 250.860172,501.8524 Z M292.804023,493.575999 C292.804023,496.073452 292.317608,498.425669 291.344763,500.63272 C290.371918,502.839771 289.043352,504.756392 287.359023,506.38264 C285.674695,508.008888 283.714514,509.293895 281.478423,510.2377 C279.242332,511.181505 276.861075,511.6534 274.334583,511.6534 C271.80809,511.6534 269.419574,511.181505 267.168962,510.2377 C264.918351,509.293895 262.950911,508.008888 261.266582,506.38264 C259.582254,504.756392 258.253687,502.847031 257.280842,500.6545 C256.307997,498.461969 255.821582,496.102492 255.821582,493.575999 C255.821582,491.049507 256.307997,488.68277 257.280842,486.475719 C258.253687,484.268668 259.582254,482.352047 261.266582,480.725799 C262.950911,479.099551 264.918351,477.821804 267.168962,476.892519 C269.419574,475.963234 271.80809,475.498599 274.334583,475.498599 C276.861075,475.498599 279.242332,475.963234 281.478423,476.892519 C283.714514,477.821804 285.674695,479.106811 287.359023,480.747579 C289.043352,482.388347 290.371918,484.304968 291.344763,486.497499 C292.317608,488.69003 292.804023,491.049507 292.804023,493.575999 Z M286.008663,493.575999 C286.008663,491.978791 285.703746,490.475986 285.093903,489.067539 C284.48406,487.659092 283.649168,486.424905 282.589203,485.364939 C281.529238,484.304974 280.28779,483.462822 278.864823,482.838459 C277.441856,482.214096 275.931791,481.901919 274.334583,481.901919 C272.708334,481.901919 271.18375,482.214096 269.760783,482.838459 C268.337815,483.462822 267.096368,484.304974 266.036402,485.364939 C264.976437,486.424905 264.141545,487.659092 263.531702,489.067539 C262.921859,490.475986 262.616942,491.978791 262.616942,493.575999 C262.616942,495.144167 262.921859,496.639712 263.531702,498.06268 C264.141545,499.485647 264.976437,500.727094 266.036402,501.78706 C267.096368,502.847025 268.337815,503.689177 269.760783,504.31354 C271.18375,504.937903 272.708334,505.25008 274.334583,505.25008 C275.931791,505.25008 277.441856,504.937903 278.864823,504.31354 C280.28779,503.689177 281.529238,502.847025 282.589203,501.78706 C283.649168,500.727094 284.48406,499.485647 285.093903,498.06268 C285.703746,496.639712 286.008663,495.144167 286.008663,493.575999 Z M328.475234,511 L321.854114,511 L306.128954,486.562839 L306.128954,511 L299.507833,511 L299.507833,476.151999 L307.087274,476.151999 L321.854114,498.89032 L321.854114,476.151999 L328.475234,476.151999 L328.475234,511 Z M371.638766,511 L364.233565,511 L361.010125,504.0304 L344.108845,504.0304 L340.841845,511 L333.436644,511 L349.902325,476.151999 L355.173085,476.151999 L371.638766,511 Z M358.352965,498.41116 L352.559485,485.865879 L346.678885,498.41116 L358.352965,498.41116 Z M401.429376,501.02476 C401.429376,502.476767 401.131719,503.819854 400.536396,505.05406 C399.941073,506.288266 399.149741,507.348215 398.162376,508.23394 C397.175011,509.119664 396.035203,509.809357 394.742916,510.30304 C393.45063,510.796722 392.093023,511.04356 390.670056,511.04356 L376.600176,511 L376.600176,476.151999 L389.145456,476.151999 C390.655544,476.151999 392.05671,476.377057 393.348996,476.827179 C394.641283,477.277301 395.766571,477.930695 396.724896,478.787379 C397.683221,479.644063 398.430994,480.689493 398.968236,481.923699 C399.505479,483.157905 399.774096,484.544551 399.774096,486.083679 C399.774096,487.390486 399.483699,488.653713 398.902896,489.873399 C398.322093,491.093085 397.552541,492.123995 396.594216,492.966159 C397.34926,493.343681 398.024433,493.822837 398.619756,494.403639 C399.215079,494.984442 399.723274,495.630576 400.144356,496.34206 C400.565438,497.053543 400.884875,497.808576 401.102676,498.60718 C401.320477,499.405784 401.429376,500.211636 401.429376,501.02476 Z M393.109416,486.214359 C393.109416,485.372195 392.949698,484.646202 392.630256,484.036359 C392.310814,483.426516 391.882479,482.918321 391.345236,482.511759 C390.807993,482.105197 390.190899,481.80028 389.493936,481.596999 C388.796972,481.393718 388.07098,481.292079 387.315936,481.292079 L383.351976,481.292079 L383.351976,490.875279 C384.077979,490.90432 384.731373,490.918839 385.312176,490.918839 L387.315936,490.918839 C388.07098,490.918839 388.796972,490.83172 389.493936,490.657479 C390.190899,490.483238 390.807993,490.207361 391.345236,489.829839 C391.882479,489.452317 392.310814,488.965902 392.630256,488.370579 C392.949698,487.775256 393.109416,487.056523 393.109416,486.214359 Z M394.416216,500.63272 C394.416216,499.906716 394.278278,499.238803 394.002396,498.62896 C393.726515,498.019117 393.348998,497.503662 392.869836,497.08258 C392.390674,496.661497 391.838919,496.334801 391.214556,496.10248 C390.590193,495.870158 389.91502,495.754 389.189016,495.754 C388.201651,495.724959 387.228821,495.717699 386.270496,495.73222 C385.312171,495.74674 384.339341,495.754 383.351976,495.754 L383.351976,505.38076 L388.404936,505.38076 C389.13094,505.38076 389.856932,505.293641 390.582936,505.1194 C391.30894,504.945159 391.955073,504.662022 392.521356,504.26998 C393.087639,503.877938 393.545014,503.384263 393.893496,502.78894 C394.241978,502.193617 394.416216,501.474884 394.416216,500.63272 Z M431.263547,511 L407.697586,511 L407.697586,476.195559 L414.580067,476.195559 L414.580067,504.466 L431.263547,504.466 L431.263547,511 Z M459.660238,511 L436.660557,511 L436.660557,476.195559 L459.660238,476.195559 L459.660238,481.771239 L443.281677,481.771239 L443.281677,490.091199 L459.442438,490.091199 L459.442438,495.5362 L443.281677,495.5362 L443.281677,505.1194 L459.660238,505.1194 L459.660238,511 Z" id="[]ASON" fill="#333333"></path>
            <g id="[RE]ASON">
                <use fill="#FFFFFF" fill-rule="evenodd" xlink:href="#path-3"></use>
                <use fill="black" fill-opacity="1" filter="url(#filter-4)" xlink:href="#path-3"></use>
            </g>
        </g>
    </g>
</svg>